{
  "accessors": [
    {
      "bufferView": 2,
      "componentType": 5126,
      "count": 65533,
      "max": [
        86.2647476196289,
        57.27240753173828,
        62.28430938720703
      ],
      "min": [
        -103.4822006225586,
        -31.076133728027344,
        -67.91740417480469
      ],
      "type": "VEC3"
    },
    {
      "bufferView": 2,
      "byteOffset": 786396,
      "componentType": 5126,
      "count": 65533,
      "max": [
        0.9999856352806091,
        0.9999847412109375,
        0.9999843835830688
      ],
      "min": [
        -0.9999521970748901,
        -0.9999931454658508,
        -0.9999900460243225
      ],
      "type": "VEC3"
    },
    {
      "bufferView": 1,
      "componentType": 5126,
      "count": 65533,
      "max": [
        0.986719012260437,
        0.9984959959983826
      ],
      "min": [
        0.014972999691963196,
        0.018059000372886658
      ],
      "type": "VEC2"
    },
    {
      "bufferView": 0,
      "componentType": 5125,
      "count": 343737,
      "type": "SCALAR"
    },
    {
      "bufferView": 2,
      "byteOffset": 1572792,
      "componentType": 5126,
      "count": 65532,
      "max": [
        95.69422149658203,
        73.63321685791016,
        62.29003143310547
      ],
      "min": [
        -103.4822006225586,
        -59.69036102294922,
        -68.62646484375
      ],
      "type": "VEC3"
    },
    {
      "bufferView": 2,
      "byteOffset": 2359176,
      "componentType": 5126,
      "count": 65532,
      "max": [
        0.9999973177909851,
        0.9999810457229614,
        1.0
      ],
      "min": [
        -1.0,
        -0.9999958276748657,
        -0.9999521374702454
      ],
      "type": "VEC3"
    },
    {
      "bufferView": 1,
      "byteOffset": 524264,
      "componentType": 5126,
      "count": 65532,
      "max": [
        0.9979349970817566,
        0.9984959959983826
      ],
      "min": [
        0.01692900061607361,
        0.006306000053882599
      ],
      "type": "VEC2"
    },
    {
      "bufferView": 0,
      "byteOffset": 1374948,
      "componentType": 5125,
      "count": 313695,
      "type": "SCALAR"
    },
    {
      "bufferView": 2,
      "byteOffset": 3145560,
      "componentType": 5126,
      "count": 65532,
      "max": [
        95.69422149658203,
        79.9765396118164,
        69.18449401855469
      ],
      "min": [
        -102.20911407470703,
        -78.61388397216797,
        -68.2834243774414
      ],
      "type": "VEC3"
    },
    {
      "bufferView": 2,
      "byteOffset": 3931944,
      "componentType": 5126,
      "count": 65532,
      "max": [
        0.9999938607215881,
        1.0,
        0.9999861717224121
      ],
      "min": [
        -0.9999873042106628,
        -1.0,
        -0.999988853931427
      ],
      "type": "VEC3"
    },
    {
      "bufferView": 1,
      "byteOffset": 1048520,
      "componentType": 5126,
      "count": 65532,
      "max": [
        0.9834210276603699,
        0.9984959959983826
      ],
      "min": [
        0.0012740000383928418,
        0.006544000003486872
      ],
      "type": "VEC2"
    },
    {
      "bufferView": 0,
      "byteOffset": 2629728,
      "componentType": 5125,
      "count": 314130,
      "type": "SCALAR"
    },
    {
      "bufferView": 2,
      "byteOffset": 4718328,
      "componentType": 5126,
      "count": 65532,
      "max": [
        95.2632827758789,
        75.5357437133789,
        70.98271942138672
      ],
      "min": [
        -93.91410827636719,
        -78.61199188232422,
        -61.91733169555664
      ],
      "type": "VEC3"
    },
    {
      "bufferView": 2,
      "byteOffset": 5504712,
      "componentType": 5126,
      "count": 65532,
      "max": [
        0.9999908804893494,
        1.0,
        0.9999991655349731
      ],
      "min": [
        -1.0,
        -0.9999887943267822,
        -0.9999513626098633
      ],
      "type": "VEC3"
    },
    {
      "bufferView": 1,
      "byteOffset": 1572776,
      "componentType": 5126,
      "count": 65532,
      "max": [
        0.9984210133552551,
        0.9984959959983826
      ],
      "min": [
        0.0012740000383928418,
        0.004238999914377928
      ],
      "type": "VEC2"
    },
    {
      "bufferView": 0,
      "byteOffset": 3886248,
      "componentType": 5125,
      "count": 326817,
      "type": "SCALAR"
    },
    {
      "bufferView": 2,
      "byteOffset": 6291096,
      "componentType": 5126,
      "count": 53355,
      "max": [
        93.95262908935547,
        80.05707550048828,
        70.61295318603516
      ],
      "min": [
        -93.37955474853516,
        -78.45641326904297,
        -60.139469146728516
      ],
      "type": "VEC3"
    },
    {
      "bufferView": 2,
      "byteOffset": 6931356,
      "componentType": 5126,
      "count": 53355,
      "max": [
        0.9999916553497314,
        1.0,
        0.9999935626983643
      ],
      "min": [
        -0.9999927878379822,
        -0.9998525381088257,
        -0.9999513626098633
      ],
      "type": "VEC3"
    },
    {
      "bufferView": 1,
      "byteOffset": 2097032,
      "componentType": 5126,
      "count": 53355,
      "max": [
        0.9987260103225708,
        0.9961230158805847
      ],
      "min": [
        0.0012740000383928418,
        0.0015040000434964895
      ],
      "type": "VEC2"
    },
    {
      "bufferView": 0,
      "byteOffset": 5193516,
      "componentType": 5125,
      "count": 218847,
      "type": "SCALAR"
    }
  ],
  "asset": {
    "extras": {
      "author": "ReferenceLibrary (https://sketchfab.com/ReferenceLibrary)",
      "license": "CC-BY-4.0 (http://creativecommons.org/licenses/by/4.0/)",
      "source": "https://sketchfab.com/3d-models/msa-sordin-supreme-pro-x-9408edd069d74261a1093ddb1d5eb6f5",
      "title": "MSA Sordin Supreme Pro-X"
    },
    "generator": "Sketchfab-12.67.0",
    "version": "2.0"
  },
  "bufferViews": [
    {
      "buffer": 0,
      "byteLength": 6068904,
      "name": "floatBufferViews",
      "target": 34963
    },
    {
      "buffer": 0,
      "byteLength": 2523872,
      "byteOffset": 6068904,
      "byteStride": 8,
      "name": "floatBufferViews",
      "target": 34962
    },
    {
      "buffer": 0,
      "byteLength": 7571616,
      "byteOffset": 8592776,
      "byteStride": 12,
      "name": "floatBufferViews",
      "target": 34962
    }
  ],
  "buffers": [
    {
      "byteLength": 16164392,
      "uri": "casque.bin"
    }
  ],
  "images": [
    {
      "uri": "textures/texture_baseColor.jpeg"
    }
  ],
  "materials": [
    {
      "doubleSided": true,
      "name": "texture",
      "pbrMetallicRoughness": {
        "baseColorTexture": {
          "index": 0
        },
        "metallicFactor": 0.0,
        "roughnessFactor": 0.8248856707317073
      }
    }
  ],
  "meshes": [
    {
      "name": "Object_0",
      "primitives": [
        {
          "attributes": {
            "NORMAL": 1,
            "POSITION": 0,
            "TEXCOORD_0": 2
          },
          "indices": 3,
          "material": 0,
          "mode": 4
        }
      ]
    },
    {
      "name": "Object_1",
      "primitives": [
        {
          "attributes": {
            "NORMAL": 5,
            "POSITION": 4,
            "TEXCOORD_0": 6
          },
          "indices": 7,
          "material": 0,
          "mode": 4
        }
      ]
    },
    {
      "name": "Object_2",
      "primitives": [
        {
          "attributes": {
            "NORMAL": 9,
            "POSITION": 8,
            "TEXCOORD_0": 10
          },
          "indices": 11,
          "material": 0,
          "mode": 4
        }
      ]
    },
    {
      "name": "Object_3",
      "primitives": [
        {
          "attributes": {
            "NORMAL": 13,
            "POSITION": 12,
            "TEXCOORD_0": 14
          },
          "indices": 15,
          "material": 0,
          "mode": 4
        }
      ]
    },
    {
      "name": "Object_4",
      "primitives": [
        {
          "attributes": {
            "NORMAL": 17,
            "POSITION": 16,
            "TEXCOORD_0": 18
          },
          "indices": 19,
          "material": 0,
          "mode": 4
        }
      ]
    }
  ],
  "nodes": [
    {
      "children": [
        1
      ],
      "matrix": [
        0.10000878572463989,
        0.9401632547378541,
        -0.3257165253162382,
        0.0,
        0.010831687599420547,
        -0.32836702466011025,
        -0.9444881081581117,
        0.0,
        -0.9949275851249695,
        0.09092904627323152,
        -0.04302314296364782,
        0.0,
        -1.9396946430206299,
        6.118007183074951,
        -0.5266792178153978,
        1.0
      ],
      "name": "Sketchfab_model"
    },
    {
      "children": [
        2,
        3,
        4,
        5,
        6
      ],
      "name": "MSASordinSupremePro-X.obj.cleaner.materialmerger.gles"
    },
    {
      "mesh": 0,
      "name": "Object_2"
    },
    {
      "mesh": 1,
      "name": "Object_3"
    },
    {
      "mesh": 2,
      "name": "Object_4"
    },
    {
      "mesh": 3,
      "name": "Object_5"
    },
    {
      "mesh": 4,
      "name": "Object_6"
    }
  ],
  "samplers": [
    {
      "magFilter": 9729,
      "minFilter": 9987,
      "wrapS": 10497,
      "wrapT": 10497
    }
  ],
  "scene": 0,
  "scenes": [
    {
      "name": "Sketchfab_Scene",
      "nodes": [
        0
      ]
    }
  ],
  "textures": [
    {
      "sampler": 0,
      "source": 0
    }
  ]
}
