{
  "accessors": [
    {
      "bufferView": 2,
      "componentType": 5126,
      "count": 65532,
      "max": [
        543.0301513671875,
        -380.9141845703125,
        593.3418579101563
      ],
      "min": [
        -85.10142517089844,
        -660.04736328125,
        -486.7715759277344
      ],
      "type": "VEC3"
    },
    {
      "bufferView": 2,
      "byteOffset": 786384,
      "componentType": 5126,
      "count": 65532,
      "max": [
        0.9999815821647644,
        0.9998600482940674,
        0.9989890456199646
      ],
      "min": [
        -0.9999991059303284,
        -0.9999983906745911,
        -0.9999183416366577
      ],
      "type": "VEC3"
    },
    {
      "bufferView": 1,
      "componentType": 5126,
      "count": 65532,
      "max": [
        0.9670670032501221,
        0.9897639751434326
      ],
      "min": [
        0.001930000027641654,
        0.0019920000340789557
      ],
      "type": "VEC2"
    },
    {
      "bufferView": 0,
      "componentType": 5125,
      "count": 309714,
      "type": "SCALAR"
    },
    {
      "bufferView": 2,
      "byteOffset": 1572768,
      "componentType": 5126,
      "count": 65532,
      "max": [
        470.2930908203125,
        -403.17022705078125,
        579.8251953125
      ],
      "min": [
        -83.7664794921875,
        -664.973388671875,
        -516.6048583984375
      ],
      "type": "VEC3"
    },
    {
      "bufferView": 2,
      "byteOffset": 2359152,
      "componentType": 5126,
      "count": 65532,
      "max": [
        0.9999759793281555,
        0.9833188056945801,
        0.9999600052833557
      ],
      "min": [
        -0.9999991059303284,
        -0.9999919533729553,
        -0.9998512268066406
      ],
      "type": "VEC3"
    },
    {
      "bufferView": 1,
      "byteOffset": 524256,
      "componentType": 5126,
      "count": 65532,
      "max": [
        0.9670670032501221,
        0.9463149905204773
      ],
      "min": [
        0.001930000027641654,
        0.002678999910131097
      ],
      "type": "VEC2"
    },
    {
      "bufferView": 0,
      "byteOffset": 1238856,
      "componentType": 5125,
      "count": 316377,
      "type": "SCALAR"
    },
    {
      "bufferView": 2,
      "byteOffset": 3145536,
      "componentType": 5126,
      "count": 65532,
      "max": [
        538.4515991210938,
        -374.5499572753906,
        583.4417114257813
      ],
      "min": [
        -85.62957000732422,
        -664.973388671875,
        -521.0596923828125
      ],
      "type": "VEC3"
    },
    {
      "bufferView": 2,
      "byteOffset": 3931920,
      "componentType": 5126,
      "count": 65532,
      "max": [
        0.9999794363975525,
        0.9379634857177734,
        0.9995479583740234
      ],
      "min": [
        -0.9999979734420776,
        -0.9999972581863403,
        -0.9999094605445862
      ],
      "type": "VEC3"
    },
    {
      "bufferView": 1,
      "byteOffset": 1048512,
      "componentType": 5126,
      "count": 65532,
      "max": [
        0.9670670032501221,
        0.9940720200538635
      ],
      "min": [
        0.001930000027641654,
        0.0019920000340789557
      ],
      "type": "VEC2"
    },
    {
      "bufferView": 0,
      "byteOffset": 2504364,
      "componentType": 5125,
      "count": 298038,
      "type": "SCALAR"
    },
    {
      "bufferView": 2,
      "byteOffset": 4718304,
      "componentType": 5126,
      "count": 65532,
      "max": [
        536.3174438476563,
        -374.4058532714844,
        578.5438842773438
      ],
      "min": [
        -85.62957000732422,
        -663.7014770507813,
        -521.1724243164063
      ],
      "type": "VEC3"
    },
    {
      "bufferView": 2,
      "byteOffset": 5504688,
      "componentType": 5126,
      "count": 65532,
      "max": [
        0.999988853931427,
        0.9997699856758118,
        0.9997291564941406
      ],
      "min": [
        -0.9999991059303284,
        -0.9999972581863403,
        -0.9999862909317017
      ],
      "type": "VEC3"
    },
    {
      "bufferView": 1,
      "byteOffset": 1572768,
      "componentType": 5126,
      "count": 65532,
      "max": [
        0.9670670032501221,
        0.9966779947280884
      ],
      "min": [
        0.001930000027641654,
        0.0019920000340789557
      ],
      "type": "VEC2"
    },
    {
      "bufferView": 0,
      "byteOffset": 3696516,
      "componentType": 5125,
      "count": 281103,
      "type": "SCALAR"
    },
    {
      "bufferView": 2,
      "byteOffset": 6291072,
      "componentType": 5126,
      "count": 65532,
      "max": [
        543.0301513671875,
        -374.82818603515625,
        581.9576416015625
      ],
      "min": [
        -82.50309753417969,
        -664.3252563476563,
        -517.008056640625
      ],
      "type": "VEC3"
    },
    {
      "bufferView": 2,
      "byteOffset": 7077456,
      "componentType": 5126,
      "count": 65532,
      "max": [
        0.9999912977218628,
        0.9963756799697876,
        0.9989890456199646
      ],
      "min": [
        -0.9999936819076538,
        -0.9999972581863403,
        -0.9996037483215332
      ],
      "type": "VEC3"
    },
    {
      "bufferView": 1,
      "byteOffset": 2097024,
      "componentType": 5126,
      "count": 65532,
      "max": [
        0.9670670032501221,
        0.9979649782180786
      ],
      "min": [
        0.001930000027641654,
        0.0019920000340789557
      ],
      "type": "VEC2"
    },
    {
      "bufferView": 0,
      "byteOffset": 4820928,
      "componentType": 5125,
      "count": 208008,
      "type": "SCALAR"
    },
    {
      "bufferView": 2,
      "byteOffset": 7863840,
      "componentType": 5126,
      "count": 56410,
      "max": [
        541.7562255859375,
        -374.4058532714844,
        581.8641357421875
      ],
      "min": [
        -84.88571166992188,
        -661.1343383789063,
        -508.53289794921875
      ],
      "type": "VEC3"
    },
    {
      "bufferView": 2,
      "byteOffset": 8540760,
      "componentType": 5126,
      "count": 56410,
      "max": [
        0.999919593334198,
        0.9999026656150818,
        0.9999600052833557
      ],
      "min": [
        -0.9999537467956543,
        -0.9999067187309265,
        -0.9999889135360718
      ],
      "type": "VEC3"
    },
    {
      "bufferView": 1,
      "byteOffset": 2621280,
      "componentType": 5126,
      "count": 56410,
      "max": [
        0.9670670032501221,
        0.9980080127716064
      ],
      "min": [
        0.001930000027641654,
        0.0035149999894201756
      ],
      "type": "VEC2"
    },
    {
      "bufferView": 0,
      "byteOffset": 5652960,
      "componentType": 5125,
      "count": 181407,
      "type": "SCALAR"
    }
  ],
  "asset": {
    "extras": {
      "author": "Connections XR (https://sketchfab.com/connectionsxr)",
      "license": "CC-BY-4.0 (http://creativecommons.org/licenses/by/4.0/)",
      "source": "https://sketchfab.com/3d-models/jacket-0ef825d04a05436f8a91c1ac489366cf",
      "title": "Jacket"
    },
    "generator": "Sketchfab-13.74.0",
    "version": "2.0"
  },
  "bufferViews": [
    {
      "buffer": 0,
      "byteLength": 6378588,
      "name": "floatBufferViews",
      "target": 34963
    },
    {
      "buffer": 0,
      "byteLength": 3072560,
      "byteOffset": 6378588,
      "byteStride": 8,
      "name": "floatBufferViews",
      "target": 34962
    },
    {
      "buffer": 0,
      "byteLength": 9217680,
      "byteOffset": 9451148,
      "byteStride": 12,
      "name": "floatBufferViews",
      "target": 34962
    }
  ],
  "buffers": [
    {
      "byteLength": 18668828,
      "uri": "jacket.bin"
    }
  ],
  "images": [
    {
      "uri": "textures/material_0_baseColor.png"
    }
  ],
  "materials": [
    {
      "doubleSided": true,
      "name": "material_0",
      "pbrMetallicRoughness": {
        "baseColorTexture": {
          "index": 0
        },
        "metallicFactor": 0.0,
        "roughnessFactor": 0.5957816846442945
      }
    }
  ],
  "meshes": [
    {
      "name": "Object_0",
      "primitives": [
        {
          "attributes": {
            "NORMAL": 1,
            "POSITION": 0,
            "TEXCOORD_0": 2
          },
          "indices": 3,
          "material": 0,
          "mode": 4
        }
      ]
    },
    {
      "name": "Object_1",
      "primitives": [
        {
          "attributes": {
            "NORMAL": 5,
            "POSITION": 4,
            "TEXCOORD_0": 6
          },
          "indices": 7,
          "material": 0,
          "mode": 4
        }
      ]
    },
    {
      "name": "Object_2",
      "primitives": [
        {
          "attributes": {
            "NORMAL": 9,
            "POSITION": 8,
            "TEXCOORD_0": 10
          },
          "indices": 11,
          "material": 0,
          "mode": 4
        }
      ]
    },
    {
      "name": "Object_3",
      "primitives": [
        {
          "attributes": {
            "NORMAL": 13,
            "POSITION": 12,
            "TEXCOORD_0": 14
          },
          "indices": 15,
          "material": 0,
          "mode": 4
        }
      ]
    },
    {
      "name": "Object_4",
      "primitives": [
        {
          "attributes": {
            "NORMAL": 17,
            "POSITION": 16,
            "TEXCOORD_0": 18
          },
          "indices": 19,
          "material": 0,
          "mode": 4
        }
      ]
    },
    {
      "name": "Object_5",
      "primitives": [
        {
          "attributes": {
            "NORMAL": 21,
            "POSITION": 20,
            "TEXCOORD_0": 22
          },
          "indices": 23,
          "material": 0,
          "mode": 4
        }
      ]
    }
  ],
  "nodes": [
    {
      "children": [
        1
      ],
      "matrix": [
        1.0,
        0.0,
        0.0,
        0.0,
        0.0,
        2.220446049250313e-16,
        -1.0,
        0.0,
        0.0,
        1.0,
        2.220446049250313e-16,
        0.0,
        0.0,
        0.0,
        0.0,
        1.0
      ],
      "name": "Sketchfab_model"
    },
    {
      "children": [
        2,
        3,
        4,
        5,
        6,
        7
      ],
      "name": "Jacket01_N.obj.cleaner.materialmerger.gles"
    },
    {
      "mesh": 0,
      "name": "Object_2"
    },
    {
      "mesh": 1,
      "name": "Object_3"
    },
    {
      "mesh": 2,
      "name": "Object_4"
    },
    {
      "mesh": 3,
      "name": "Object_5"
    },
    {
      "mesh": 4,
      "name": "Object_6"
    },
    {
      "mesh": 5,
      "name": "Object_7"
    }
  ],
  "samplers": [
    {
      "magFilter": 9729,
      "minFilter": 9987,
      "wrapS": 10497,
      "wrapT": 10497
    }
  ],
  "scene": 0,
  "scenes": [
    {
      "name": "Sketchfab_Scene",
      "nodes": [
        0
      ]
    }
  ],
  "textures": [
    {
      "sampler": 0,
      "source": 0
    }
  ]
}
